<svg width="420" height="420" viewBox="0 0 420 420" fill="none" xmlns="http://www.w3.org/2000/svg">
    <circle cx="210" cy="210" r="210" fill="url(#paint0_radial)"/>
    <path d="M211.5 122L220.552 137.041L237.654 141.002L226.146 154.259L227.664 171.748L211.5 164.9L195.336 171.748L196.854 154.259L185.346 141.002L202.448 137.041L211.5 122Z" fill="white"/>
    <path d="M211.5 197L220.552 212.041L237.654 216.002L226.146 229.259L227.664 246.748L211.5 239.9L195.336 246.748L196.854 229.259L185.346 216.002L202.448 212.041L211.5 197Z" fill="white"/>
    <path d="M151.5 159L160.552 174.041L177.654 178.002L166.146 191.259L167.664 208.748L151.5 201.9L135.336 208.748L136.854 191.259L125.346 178.002L142.448 174.041L151.5 159Z" fill="white"/>
    <path d="M151.5 214L160.552 229.041L177.654 233.002L166.146 246.259L167.664 263.748L151.5 256.9L135.336 263.748L136.854 246.259L125.346 233.002L142.448 229.041L151.5 214Z" fill="white"/>
    <path d="M91.5 192L100.552 207.041L117.654 211.002L106.146 224.259L107.664 241.748L91.5 234.9L75.3359 241.748L76.8537 224.259L65.3459 211.002L82.4481 207.041L91.5 192Z" fill="white"/>
    <path d="M268.5 159L259.448 174.041L242.346 178.002L253.854 191.259L252.336 208.748L268.5 201.9L284.664 208.748L283.146 191.259L294.654 178.002L277.552 174.041L268.5 159Z" fill="white"/>
    <path d="M268.5 214L259.448 229.041L242.346 233.002L253.854 246.259L252.336 263.748L268.5 256.9L284.664 263.748L283.146 246.259L294.654 233.002L277.552 229.041L268.5 214Z" fill="white"/>
    <path d="M328.5 192L319.448 207.041L302.346 211.002L313.854 224.259L312.336 241.748L328.5 234.9L344.664 241.748L343.146 224.259L354.654 211.002L337.552 207.041L328.5 192Z" fill="white"/>
    <defs>
        <radialGradient id="paint0_radial" cx="0" cy="0" r="1" gradientUnits="userSpaceOnUse" gradientTransform="translate(147 90) rotate(60.8801) scale(341.116)">
            <stop stop-color="#5FB7EF"/>
            <stop offset="1" stop-color="#CE3A6E"/>
        </radialGradient>
    </defs>
</svg>
