<?xml version="1.0" encoding="UTF-8" standalone="no"?>
<svg
   xmlns:dc="http://purl.org/dc/elements/1.1/"
   xmlns:cc="http://creativecommons.org/ns#"
   xmlns:rdf="http://www.w3.org/1999/02/22-rdf-syntax-ns#"
   xmlns:svg="http://www.w3.org/2000/svg"
   xmlns="http://www.w3.org/2000/svg"
   xmlns:sodipodi="http://sodipodi.sourceforge.net/DTD/sodipodi-0.dtd"
   xmlns:inkscape="http://www.inkscape.org/namespaces/inkscape"
   width="1300.1908"
   height="420"
   viewBox="0 0 1300.1908 419.99999"
   fill="none"
   version="1.1"
   id="svg27"
   sodipodi:docname="logo3.svg"
   inkscape:version="1.0.2 (e86c870879, 2021-01-15)">
  <metadata
     id="metadata31">
    <rdf:RDF>
      <cc:Work
         rdf:about="">
        <dc:format>image/svg+xml</dc:format>
        <dc:type
           rdf:resource="http://purl.org/dc/dcmitype/StillImage" />
        <dc:title />
      </cc:Work>
    </rdf:RDF>
  </metadata>
  <sodipodi:namedview
     pagecolor="#ffffff"
     bordercolor="#666666"
     borderopacity="1"
     objecttolerance="10"
     gridtolerance="10"
     guidetolerance="10"
     inkscape:pageopacity="0"
     inkscape:pageshadow="2"
     inkscape:window-width="1920"
     inkscape:window-height="1020"
     id="namedview29"
     showgrid="false"
     fit-margin-right="0"
     lock-margins="true"
     fit-margin-top="0"
     fit-margin-left="0"
     fit-margin-bottom="0"
     inkscape:zoom="1"
     inkscape:cx="646.79847"
     inkscape:cy="218.5"
     inkscape:window-x="0"
     inkscape:window-y="36"
     inkscape:window-maximized="1"
     inkscape:current-layer="svg27"
     inkscape:document-rotation="0" />
  <circle
     cx="210"
     cy="210"
     r="210"
     fill="url(#paint0_radial)"
     id="circle2"
     style="fill:url(#paint0_radial)" />
  <path
     d="m 211.5,122 9.052,15.041 17.102,3.961 -11.508,13.257 1.518,17.489 -16.164,-6.848 -16.164,6.848 1.518,-17.489 -11.508,-13.257 17.102,-3.961 z"
     fill="#ffffff"
     id="path4" />
  <path
     d="m 211.5,197 9.052,15.041 17.102,3.961 -11.508,13.257 1.518,17.489 -16.164,-6.848 -16.164,6.848 1.518,-17.489 -11.508,-13.257 17.102,-3.961 z"
     fill="#ffffff"
     id="path6" />
  <path
     d="m 151.5,159 9.052,15.041 17.102,3.961 -11.508,13.257 1.518,17.489 -16.164,-6.848 -16.164,6.848 1.518,-17.489 -11.508,-13.257 17.102,-3.961 z"
     fill="#ffffff"
     id="path8" />
  <path
     d="m 151.5,214 9.052,15.041 17.102,3.961 -11.508,13.257 1.518,17.489 -16.164,-6.848 -16.164,6.848 1.518,-17.489 -11.508,-13.257 17.102,-3.961 z"
     fill="#ffffff"
     id="path10" />
  <path
     d="m 91.500005,192 9.051995,15.041 17.102,3.961 -11.508,13.257 1.518,17.489 -16.163995,-6.848 -16.1641,6.848 1.5178,-17.489 -11.5078,-13.257 17.1022,-3.961 z"
     fill="#ffffff"
     id="path12" />
  <path
     d="m 268.5,159 -9.052,15.041 -17.102,3.961 11.508,13.257 -1.518,17.489 16.164,-6.848 16.164,6.848 -1.518,-17.489 11.508,-13.257 -17.102,-3.961 z"
     fill="#ffffff"
     id="path14" />
  <path
     d="m 268.5,214 -9.052,15.041 -17.102,3.961 11.508,13.257 -1.518,17.489 16.164,-6.848 16.164,6.848 -1.518,-17.489 11.508,-13.257 -17.102,-3.961 z"
     fill="#ffffff"
     id="path16" />
  <path
     d="m 328.5,192 -9.052,15.041 -17.102,3.961 11.508,13.257 -1.518,17.489 16.164,-6.848 16.164,6.848 -1.518,-17.489 11.508,-13.257 -17.102,-3.961 z"
     fill="#ffffff"
     id="path18" />
  <defs
     id="defs25">
    <radialGradient
       id="paint0_radial"
       cx="0"
       cy="0"
       r="1"
       gradientUnits="userSpaceOnUse"
       gradientTransform="matrix(166.00029,298.00005,-298.00005,166.00029,147,89.999998)">
      <stop
         stop-color="#5FB7EF"
         id="stop20" />
      <stop
         offset="1"
         stop-color="#CE3A6E"
         id="stop22" />
    </radialGradient>
  </defs>
  <text
     xml:space="preserve"
     style="font-style:normal;font-variant:normal;font-weight:normal;font-stretch:normal;font-size:192px;line-height:1.25;font-family:'Montserrat Alternates';-inkscape-font-specification:'Montserrat Alternates';fill:#000000;fill-opacity:1;stroke:none"
     x="436"
     y="258.57599"
     id="text858"><tspan
       sodipodi:role="line"
       id="tspan856"
       x="436"
       y="258.57599"
       style="font-style:normal;font-variant:normal;font-weight:bold;font-stretch:normal;font-size:192px;font-family:Montserrat;-inkscape-font-specification:'Montserrat Bold';fill:#ffffff">Empress</tspan></text>
</svg>
